<svg xmlns="http://www.w3.org/2000/svg" id="SvgjsSvg40066" width="4096" height="3500.2908499524483" version="1.1" xmlns:xlink="http://www.w3.org/1999/xlink" xmlns:svgjs="http://svgjs.com/svgjs"><defs id="SvgjsDefs40067"></defs><g id="SvgjsG40068" transform="translate(328, 328) scale(34.400000000000006)" opacity="1"><defs id="SvgjsDefs12287"><linearGradient id="SvgjsLinearGradientaXpUTLaEP" gradientUnits="userSpaceOnUse" x1="-120.39249999999998" y1="67.4475" x2="89.2825" y2="-142.22750000000002"><stop id="SvgjsStop12291" stop-color="#110063" offset="0.363"></stop><stop id="SvgjsStop12292" stop-color="#efde23" offset="1"></stop></linearGradient></defs><g id="SvgjsG12288" transform="scale(0.29021717636058025)" opacity="1"><g id="SvgjsG12289" class="pLkoQAVGl" transform="translate(111.20516962772926, 67.7945098894048) scale(1.8892786292052213)" light-content="false" non-strokable="false" fill="#0917aa"><path d="M59.848 23.332a1.665 1.665 0 0 1-.504-1.176 1.68 1.68 0 0 1 .399-1.136c.02-.024.035-.051.054-.075.621-.636 1.73-.656 2.387-.035.32.305.504.723.504 1.16.015.453-.153.871-.453 1.211-.02.02-.047.04-.067.059a1.658 1.658 0 0 1-1.14.465c-.442 0-.864-.168-1.18-.473zm20.789 48.145c-.723.426-1.738.234-2.238-.457-1.68-2.41-4.621-4.406-8.164-5.602a22.81 22.81 0 0 0-1.176-.363l-.117-.035c-.016 0-.051-.016-.133-.05a178.86 178.86 0 0 0-1.781-.625c-2.368-.813-5.84-1.942-8.739-2.641v.46c0 3.102-3.261 5.27-7.93 5.27-1.898 0-3.695-.383-5.062-1.082-1.852-.945-2.867-2.434-2.867-4.188l-.004-.625c-3.11.696-7.117 2.008-9.445 2.805-.715.246-1.27.442-1.594.559-.196.07-.309.113-.317.117l-.117.035c-.308.086-.703.207-1.156.363-3.387 1.165-10.078 4.38-10.035 11.47v11.761c0 .926-.758 1.68-1.68 1.68-.925 0-1.68-.758-1.68-1.68l-.007-11.762c.047-7.867 6.246-12.66 12.445-14.699-.68-2.832-1.04-5.867-1.04-9.027 0-9.746 1.294-17.762 3.813-23.844 3.496-8.57 9.98-13.289 18.266-13.289l.121-.004c2.082 0 4.082.336 5.93.973a1.697 1.697 0 0 1 1.023 2.152c-.011.031-.03.063-.046.094-.34.781-1.282 1.223-2.09.934-1.496-.524-3.11-.79-4.82-.79-7.157.051-11.997 3.614-15.274 11.238-.039.09-.07.188-.109.278a6.685 6.685 0 0 1 3.621-1.067h23.523a6.64 6.64 0 0 1 2.902.668 29.985 29.985 0 0 0-1.105-2.214 1.614 1.614 0 0 1-.133-1.278 1.65 1.65 0 0 1 .75-.98c.016-.008.027-.02.04-.028.788-.437 1.847-.132 2.284.657 4.942 8.941 5.696 20.434 5.696 26.5 0 3.195-.348 6.222-1.02 9.035 4.285 1.418 7.805 3.844 9.977 6.879a1.71 1.71 0 0 1-.422 2.351c-.024.02-.059.032-.09.051zM54.922 59.704v-1.852c-.148.067-.293.133-.441.196a11.728 11.728 0 0 1-4.48.894c-1.466 0-2.88-.281-4.216-.793v4.02c0 1.035 2.094 1.91 4.57 1.91 2.477 0 4.57-.875 4.57-1.91v-.793zM34.879 39.919a3.368 3.368 0 0 0 2.184 3.145 3.36 3.36 0 0 0 1.175.218h23.523c.414 0 .809-.078 1.176-.218a3.369 3.369 0 0 0 2.184-3.145v-3.36a3.352 3.352 0 0 0-2.258-3.171 3.354 3.354 0 0 0-1.105-.192h-23.52a3.364 3.364 0 0 0-3.36 3.36l-.004 3.363zm25.465 6.723H39.656c1.156 3.27 3.102 5.91 5.488 7.453 1.477.953 3.121 1.488 4.852 1.488 1.734 0 3.379-.535 4.851-1.488 2.395-1.543 4.34-4.184 5.497-7.453zM32.047 61.115c2.602-.895 6.965-2.317 10.379-3.008v-1.863c-2.93-2.258-5.21-5.782-6.395-9.985a6.741 6.741 0 0 1-4.175-4.25c-.535 4-.692 7.922-.692 11.148.016 2.852.32 5.512.883 7.957zm26.238-5.34v2.488c3.285.735 7.277 2.031 9.672 2.852.558-2.445.867-5.11.883-7.953.008-3.7-.282-7.348-.828-10.777a6.75 6.75 0 0 1-4.04 3.879c-1.085 3.863-3.101 7.152-5.699 9.414.004.031.012.062.012.097zm23.641 25.582c-.926 0-1.68.754-1.68 1.68v5.613c0 .926.758 1.68 1.68 1.68.926 0 1.68-.758 1.68-1.68v-5.613c0-.926-.754-1.68-1.68-1.68zm-.016-3.363h.087a1.669 1.669 0 0 0 1.597-1.766c-.035-.926-.805-1.629-1.746-1.594-.04 0-.082.012-.121.016a1.65 1.65 0 0 0-1.055.539c-.305.316-.453.754-.437 1.21a1.68 1.68 0 0 0 1.675 1.595zm-10.066 2.254c-.93 0-1.68.753-1.68 1.68v6.722a1.68 1.68 0 1 0 3.36 0v-6.723c0-.93-.75-1.68-1.68-1.68zm-43.688 0c-.93 0-1.68.753-1.68 1.68v6.722a1.68 1.68 0 1 0 3.36 0v-6.723c0-.93-.75-1.68-1.68-1.68zM18.074 53.36c-.925 0-1.68.757-1.68 1.68 0 .921.758 1.679 1.68 1.679.926 0 1.68-.758 1.68-1.68 0-.922-.758-1.68-1.68-1.68zm-6.722 0c-.926 0-1.68.757-1.68 1.68 0 .921.758 1.679 1.68 1.679.925 0 1.68-.758 1.68-1.68 0-.922-.755-1.68-1.68-1.68zm0-3.36h6.722a1.68 1.68 0 1 0 0-3.36h-6.722a1.68 1.68 0 1 0 0 3.36zm70.574 3.36c-.926 0-1.68.757-1.68 1.68 0 .921.758 1.679 1.68 1.679.925 0 1.68-.758 1.68-1.68 0-.922-.755-1.68-1.68-1.68zm6.722 0c-.925 0-1.68.757-1.68 1.68 0 .921.758 1.679 1.68 1.679.926 0 1.68-.758 1.68-1.68 0-.922-.758-1.68-1.68-1.68zm0-6.72h-6.722a1.68 1.68 0 1 0 0 3.36h6.722a1.68 1.68 0 1 0 0-3.36zm-8.402-5.04c0 .925.758 1.68 1.68 1.68.926 0 1.68-.758 1.68-1.68 0-.926-.758-1.68-1.68-1.68-.926 0-1.68.758-1.68 1.68zm-6.723 0c0 .925.758 1.68 1.68 1.68.926 0 1.68-.758 1.68-1.68 0-.926-.758-1.68-1.68-1.68s-1.68.758-1.68 1.68zm-48.727-5.04c-.925 0-1.68.758-1.68 1.68 0 .926.758 1.68 1.68 1.68.926 0 1.68-.758 1.68-1.68 0-.925-.758-1.68-1.68-1.68zm-8.402 1.68c0 .926.758 1.68 1.68 1.68.926 0 1.68-.758 1.68-1.68 0-.925-.758-1.68-1.68-1.68-.926 0-1.68.755-1.68 1.68zm13.441-15.125c-.926 0-1.68.758-1.68 1.68s.758 1.68 1.68 1.68c.926 0 1.68-.758 1.68-1.68s-.754-1.68-1.68-1.68zm-5.039 1.684c0-.926-.758-1.68-1.68-1.68-.926 0-1.68.758-1.68 1.68s.758 1.68 1.68 1.68c.922 0 1.68-.758 1.68-1.68zm11.762-11.766c.926 0 1.68-.758 1.68-1.68 0-.926-.758-1.68-1.68-1.68-.926 0-1.68.758-1.68 1.68 0 .926.754 1.68 1.68 1.68zm-6.723 0c.926 0 1.68-.758 1.68-1.68 0-.926-.758-1.68-1.68-1.68-.926 0-1.68.758-1.68 1.68 0 .926.754 1.68 1.68 1.68zm-6.722 0c.925 0 1.68-.758 1.68-1.68 0-.926-.759-1.68-1.68-1.68-.926 0-1.68.758-1.68 1.68 0 .926.758 1.68 1.68 1.68zm20.164 0c.925 0 1.68-.758 1.68-1.68 0-.926-.759-1.68-1.68-1.68-.926 0-1.68.758-1.68 1.68 0 .926.758 1.68 1.68 1.68zm-18.48 16.805h-6.723a1.68 1.68 0 1 0 0 3.36h6.723c.93 0 1.68-.75 1.68-1.68 0-.926-.755-1.68-1.68-1.68zm-8.403-10.082h13.441a1.68 1.68 0 1 0 0-3.36h-13.44c-.93 0-1.68.75-1.68 1.68 0 .93.75 1.68 1.68 1.68zm67.211 6.723c.922 0 1.68-.758 1.68-1.68 0-.926-.758-1.68-1.68-1.68-.926 0-1.68.758-1.68 1.68s.754 1.68 1.68 1.68zm-6.719 0c.926 0 1.68-.758 1.68-1.68 0-.926-.758-1.68-1.68-1.68-.925 0-1.68.758-1.68 1.68a1.682 1.682 0 0 0 1.68 1.68zm-6.722-3.364c-.926 0-1.68.758-1.68 1.68s.758 1.68 1.68 1.68c.926 0 1.68-.758 1.68-1.68s-.758-1.68-1.68-1.68zm3.36 8.403c0 .93.753 1.68 1.679 1.68h13.44a1.68 1.68 0 1 0 0-3.36h-13.44c-.926 0-1.68.754-1.68 1.68zM63.44 13.033h13.441a1.68 1.68 0 1 0 0-3.36h-13.44a1.68 1.68 0 1 0 0 3.36zm6.723 3.363c-.926 0-1.68.758-1.68 1.68 0 .925.758 1.68 1.68 1.68.926 0 1.68-.759 1.68-1.68 0-.926-.758-1.68-1.68-1.68zm13.44 3.36c.923 0 1.68-.759 1.68-1.68 0-.926-.757-1.68-1.68-1.68-.925 0-1.679.758-1.679 1.68s.754 1.68 1.68 1.68zm-6.718 0c.926 0 1.68-.759 1.68-1.68 0-.926-.758-1.68-1.68-1.68-.926 0-1.68.758-1.68 1.68a1.682 1.682 0 0 0 1.68 1.68zM46.64 39.918h6.723a1.68 1.68 0 1 0 0-3.36H46.64c-.766 0-1.402.517-1.605 1.216a1.676 1.676 0 0 0-.075.465c0 .453.184.867.477 1.168.3.316.726.511 1.203.511z"></path></g><g id="SvgjsG12293" class="text" transform="translate(187.84, 74.78) scale(1)" light-content="false" fill="url(#SvgjsLinearGradientaXpUTLaEP)"><path d="M-84.47 -74.78L-120.36 -74.78L-133.52 0L-110.79 0L-106.96 -22.25L-102.06 -22.25L-96.55 0L-71.55 0L-79.44 -24.89C-73.46 -27.76 -69.07 -33.5 -66.28 -42.11C-64.77 -46.66 -64.01 -51.45 -64.01 -56.47C-64.01 -68.68 -70.83 -74.78 -84.47 -74.78ZM-98.47 -40.68L-103.73 -40.68L-101.1 -55.63L-96.55 -55.63C-93.76 -55.63 -91.75 -55.42 -90.51 -54.98C-89.27 -54.54 -88.66 -53.52 -88.66 -51.93C-88.66 -51.29 -88.92 -49.55 -89.43 -46.72C-89.95 -43.89 -90.91 -42.17 -92.31 -41.58C-93.7 -40.98 -95.76 -40.68 -98.47 -40.68ZM-137.11 -0.36L-136.16 -5.74L-187.84 -5.74ZM-133.04 -23.45L-132.09 -28.83L-183.77 -28.83ZM-129.1 -46.42L-128.14 -51.81L-179.71 -51.81ZM-127.06 -57.91L-126.11 -63.29L-177.67 -63.29ZM-135.08 -11.96L-134.12 -17.35L-185.81 -17.35ZM-125.03 -69.39L-124.07 -74.78L-175.64 -74.78ZM-131.13 -34.94L-130.17 -40.32L-181.74 -40.32Z M-30.27 -0.36L-29.07 -5.74L-80.76 -5.74ZM-27.64 -11.96L-26.32 -17.35L-78.01 -17.35ZM-24.89 -23.45L-23.69 -28.83L-75.26 -28.83ZM-22.25 -34.94L-20.94 -40.32L-72.5 -40.32ZM-19.5 -46.42L-18.31 -51.81L-69.75 -51.81ZM-16.87 -57.91L-15.55 -63.29L-67 -63.29ZM-14.12 -69.39L-12.92 -74.78L-64.25 -74.78ZM-2.99 0L4.79 -36.25L5.38 -36.25L7.9 0L25.24 0L40.2 -36.25L41.04 -36.25L36.01 0L59.82 0L68.68 -74.78L39 -74.78L23.45 -36.73L22.61 -36.73L20.46 -74.78L-9.21 -74.78L-26.68 0Z M153.38 0L156.73 -19.14L134 -19.14L143.81 -74.78L121.08 -74.78L107.92 0ZM104.33 -0.36L105.29 -5.74L53.6 -5.74ZM108.4 -23.45L109.35 -28.83L57.67 -28.83ZM110.43 -34.94L111.39 -40.32L59.7 -40.32ZM112.47 -46.42L113.42 -51.81L61.74 -51.81ZM114.5 -57.91L115.34 -63.29L63.77 -63.29ZM106.36 -11.96L107.32 -17.35L55.63 -17.35ZM116.41 -69.39L117.37 -74.78L65.8 -74.78Z"></path></g><g id="SvgjsG12294" class="text" transform="translate(204.74859980094544, 284.49132057809607) scale(1)" light-content="false" fill="#0925a2"><path d="M-114.78 -134.98L-115.17 -127.91L-113.87 -127.84L-113.15 -130.31L-99.86 -128.88L-115.57 -122.98L-115.64 -121.74L-100.68 -114.26L-114.02 -114.23L-114.48 -116.73L-115.77 -116.8L-116.23 -108.27L-114.94 -108.2L-114.18 -110.86L-98.27 -110.95L-97.82 -108.39L-96.53 -108.32L-96.22 -114.1L-110.52 -121.27L-95.53 -126.79L-95.2 -132.79L-96.49 -132.89L-97.21 -130.45L-112.99 -132.21L-113.49 -134.91Z M-103 -109.48L-103.21 -107.03L-111.42 -105.84C-112.73 -105.65 -113.73 -105.11 -114.42 -104.22C-115.1 -103.34 -115.34 -102.15 -115.12 -100.67C-114.88 -98.98 -114.04 -97.5 -112.6 -96.21C-112.71 -96.18 -112.84 -96.11 -112.98 -96.01C-113.13 -95.92 -113.31 -95.77 -113.53 -95.56C-113.74 -95.36 -113.91 -95.09 -114.02 -94.74C-114.13 -94.39 -114.15 -94.01 -114.09 -93.58C-114.01 -93.04 -113.81 -92.52 -113.49 -92.01C-113.17 -91.49 -112.78 -91.04 -112.33 -90.66L-111.41 -90.79L-111.73 -92.96L-99.63 -94.72L-100.38 -99.84L-101.57 -99.66L-101.87 -97.77L-111.07 -96.43C-112.18 -97.41 -112.82 -98.53 -113.01 -99.79C-113.24 -101.38 -112.43 -102.31 -110.57 -102.58L-100.98 -103.98L-101.81 -109.65Z M-112.73 -89.47L-110.61 -81.6L-109.44 -81.91L-109.52 -84.37L-89.52 -89.76L-89.85 -90.98L-92.05 -95.04L-93.22 -94.73L-92.6 -92.42L-110.4 -87.62L-111.56 -89.78Z M-98.52 -84.32L-98.01 -82.92L-105.96 -80.03C-107.45 -79.48 -108.38 -78.75 -108.73 -77.84C-109.09 -76.92 -109.03 -75.83 -108.57 -74.56C-108.15 -73.4 -107.46 -72.37 -106.5 -71.49L-105.44 -72.38C-106.03 -73 -106.42 -73.58 -106.61 -74.11C-107.07 -75.36 -106.51 -76.27 -104.95 -76.84L-96.87 -79.78L-95.48 -75.98L-93.9 -76.56L-95.44 -80.3L-92.88 -81.23L-93.17 -82.03L-97.73 -84.61Z M-87.19 -72.33C-86.65 -72.58 -86.28 -72.97 -86.1 -73.5C-85.91 -74.03 -85.94 -74.56 -86.19 -75.09C-86.43 -75.62 -86.82 -75.98 -87.36 -76.17C-87.89 -76.36 -88.43 -76.34 -88.95 -76.09C-89.48 -75.85 -89.84 -75.46 -90.03 -74.92C-90.23 -74.39 -90.2 -73.86 -89.96 -73.33C-89.71 -72.8 -89.32 -72.44 -88.78 -72.25C-88.25 -72.05 -87.72 -72.08 -87.19 -72.33ZM-106.42 -70.2L-102.98 -62.84L-101.89 -63.35L-102.39 -65.75L-91.26 -70.95L-91.79 -72.07L-94.66 -75.69L-95.75 -75.18L-94.74 -73.02L-103.81 -68.78L-105.33 -70.71Z M-102.77 -61.07L-98.51 -54.83L-97.52 -55.51L-98.08 -57.34L-90.26 -62.67C-88.94 -62.14 -87.99 -61.44 -87.4 -60.58C-86.97 -59.94 -86.82 -59.32 -86.97 -58.71C-87.12 -58.1 -87.56 -57.54 -88.29 -57.05L-94.83 -52.58L-96.33 -53.77L-97.33 -53.09L-93.37 -47.29L-92.37 -47.97L-92.93 -49.79L-86.09 -54.47C-85.87 -54.61 -85.6 -54.84 -85.27 -55.16C-83.88 -54.66 -82.87 -53.95 -82.25 -53.03C-81.82 -52.4 -81.68 -51.78 -81.82 -51.16C-81.97 -50.55 -82.41 -50 -83.14 -49.5L-89.69 -45.03L-91.18 -46.23L-92.18 -45.55L-87.92 -39.3L-86.92 -39.98L-87.8 -42.27L-80.95 -46.95C-79.89 -47.67 -79.25 -48.61 -79.04 -49.77C-78.82 -50.92 -79.13 -52.09 -79.94 -53.28C-80.9 -54.69 -82.43 -55.68 -84.54 -56.24C-83.82 -57.7 -84 -59.23 -85.09 -60.83C-85.94 -62.08 -87.24 -62.99 -88.98 -63.55L-87.94 -64.26L-88.63 -65.28L-92.05 -68.39L-93.05 -67.71L-91.7 -65.74L-99.97 -60.1L-101.78 -61.76Z M-81.31 -43.59C-82.81 -42.1 -83.62 -40.37 -83.75 -38.4C-83.88 -36.43 -83.15 -34.65 -81.55 -33.04C-80.43 -31.92 -78.99 -31.02 -77.22 -30.33L-76.62 -31.6C-77.75 -32.12 -78.66 -32.73 -79.36 -33.43C-80.46 -34.53 -80.94 -35.78 -80.81 -37.18C-80.69 -38.58 -80.12 -39.87 -79.13 -41.04L-72.42 -34.32C-71.69 -35.04 -71.1 -35.8 -70.63 -36.58C-70.17 -37.36 -69.85 -38.17 -69.68 -39.01C-69.52 -39.85 -69.58 -40.7 -69.87 -41.56C-70.16 -42.43 -70.69 -43.24 -71.45 -44.01C-72.92 -45.48 -74.57 -46.15 -76.39 -46C-78.21 -45.85 -79.85 -45.05 -81.31 -43.59ZM-78.15 -42.02C-77.2 -42.91 -76.2 -43.47 -75.16 -43.67C-74.12 -43.87 -73.27 -43.64 -72.61 -42.98C-72 -42.37 -71.82 -41.61 -72.07 -40.69C-72.33 -39.78 -72.83 -38.91 -73.59 -38.07Z M-71.74 -33.08C-73.1 -31.28 -73.67 -29.56 -73.46 -27.91C-73.25 -26.26 -72.5 -24.95 -71.2 -23.96C-69.88 -22.97 -68.42 -22.6 -66.81 -22.87L-66.83 -22.75C-66.85 -22.64 -66.86 -22.54 -66.87 -22.46C-66.89 -22.38 -66.9 -22.26 -66.9 -22.12C-66.9 -21.98 -66.89 -21.85 -66.88 -21.73C-66.87 -21.6 -66.85 -21.46 -66.8 -21.29C-66.76 -21.13 -66.7 -20.98 -66.63 -20.83C-66.55 -20.68 -66.45 -20.52 -66.32 -20.37C-66.19 -20.21 -66.05 -20.07 -65.88 -19.95C-65.49 -19.65 -65.02 -19.45 -64.46 -19.33C-63.91 -19.22 -63.51 -19.16 -63.27 -19.17L-62.69 -19.19L-62.13 -19.93L-63.88 -21.25L-51.43 -37.73L-52.44 -38.49L-56.67 -40.35L-57.4 -39.39L-55.49 -37.95L-59.1 -33.17C-59.46 -33.66 -59.95 -34.14 -60.58 -34.61C-62.35 -35.94 -64.27 -36.52 -66.34 -36.36C-68.42 -36.19 -70.22 -35.09 -71.74 -33.08ZM-68.92 -31.08C-67.68 -32.73 -66.38 -33.71 -65.04 -34.03C-63.69 -34.35 -62.45 -34.08 -61.31 -33.22C-60.82 -32.85 -60.4 -32.42 -60.05 -31.92L-66.03 -24C-67.16 -23.99 -68.15 -24.3 -68.98 -24.93C-69.78 -25.53 -70.21 -26.38 -70.27 -27.49C-70.34 -28.6 -69.89 -29.8 -68.92 -31.08Z M-47.17 -30.48C-46.87 -31 -46.79 -31.53 -46.94 -32.07C-47.09 -32.62 -47.41 -33.04 -47.92 -33.33C-48.42 -33.62 -48.94 -33.7 -49.49 -33.55C-50.05 -33.41 -50.47 -33.09 -50.76 -32.59C-51.06 -32.09 -51.13 -31.56 -50.99 -31.01C-50.84 -30.46 -50.52 -30.03 -50.02 -29.74C-49.52 -29.45 -48.99 -29.37 -48.44 -29.52C-47.89 -29.66 -47.47 -29.98 -47.17 -30.48ZM-61.79 -17.82L-54.79 -13.71L-54.18 -14.75L-55.95 -16.44L-49.74 -27.04L-50.81 -27.67L-55.23 -29.02L-55.84 -27.97L-53.78 -26.77L-58.84 -18.14L-61.18 -18.86Z M-52.02 -16.04C-52.55 -14.86 -52.54 -13.79 -51.99 -12.83C-51.45 -11.87 -50.61 -11.14 -49.48 -10.63C-48.05 -9.99 -46.56 -9.85 -45.03 -10.2C-44.94 -9.12 -44.39 -8.35 -43.38 -7.9C-42.92 -7.69 -42.4 -7.59 -41.83 -7.59C-41.25 -7.59 -40.68 -7.69 -40.12 -7.89L-39.74 -8.73L-41.74 -9.63L-38.55 -16.76C-37.23 -19.7 -38.33 -21.95 -41.83 -23.52C-42.67 -23.9 -43.57 -24.17 -44.52 -24.34C-45.47 -24.51 -46.39 -24.56 -47.28 -24.49C-47.5 -23.95 -47.58 -23.38 -47.51 -22.78C-47.44 -22.19 -47.25 -21.67 -46.96 -21.23L-42.81 -22.45C-41.92 -22.05 -41.35 -21.56 -41.11 -20.97C-40.88 -20.38 -41.09 -19.34 -41.76 -17.85L-42.16 -16.96C-47.41 -19.31 -50.69 -19 -52.02 -16.04ZM-48.74 -14.7C-48.33 -15.61 -47.62 -16.16 -46.59 -16.37C-45.56 -16.58 -44.28 -16.34 -42.74 -15.65L-44.55 -11.62C-45.47 -11.34 -46.41 -11.41 -47.35 -11.83C-48 -12.12 -48.46 -12.51 -48.74 -13.01C-49.02 -13.5 -49.02 -14.07 -48.74 -14.7Z M-32.81 -4.5L-18.01 -1.15L-16.39 -7.01L-17.65 -7.29L-20.06 -3.54L-26.5 -5L-22.99 -20.49L-20.33 -20.52L-20.05 -21.78L-28.46 -23.69L-28.75 -22.42L-26.36 -21.25L-29.86 -5.79L-32.52 -5.76Z M-15.78 -4.39C-15.88 -3.1 -15.51 -2.1 -14.68 -1.37C-13.85 -0.65 -12.81 -0.24 -11.58 -0.14C-10.01 -0.01 -8.56 -0.37 -7.24 -1.22C-6.79 -0.23 -6.02 0.31 -4.91 0.4C-4.41 0.44 -3.89 0.37 -3.34 0.18C-2.8 -0.01 -2.3 -0.3 -1.84 -0.67L-1.76 -1.6L-3.95 -1.78L-3.32 -9.56C-3.06 -12.77 -4.85 -14.53 -8.67 -14.84C-9.59 -14.92 -10.52 -14.87 -11.47 -14.72C-12.43 -14.56 -13.31 -14.3 -14.13 -13.93C-14.16 -13.35 -14.04 -12.79 -13.77 -12.25C-13.51 -11.71 -13.16 -11.29 -12.74 -10.97L-9.23 -13.51C-8.26 -13.43 -7.56 -13.15 -7.14 -12.68C-6.72 -12.2 -6.58 -11.15 -6.71 -9.53L-6.79 -8.54C-12.52 -9.01 -15.51 -7.62 -15.78 -4.39ZM-12.24 -4.22C-12.16 -5.21 -11.67 -5.97 -10.77 -6.51C-9.87 -7.05 -8.58 -7.25 -6.9 -7.12L-7.26 -2.72C-8.04 -2.14 -8.94 -1.9 -9.97 -1.98C-10.68 -2.04 -11.24 -2.25 -11.68 -2.62C-12.11 -3 -12.29 -3.53 -12.24 -4.22Z M-3.04 -19.86L-0.66 -20L0.47 -0.84C2.13 0.02 3.91 0.39 5.8 0.28C8.08 0.15 9.96 -0.69 11.44 -2.22C12.91 -3.75 13.58 -5.73 13.44 -8.16C13.31 -10.37 12.64 -12.04 11.43 -13.17C10.22 -14.3 8.74 -14.81 7 -14.71C5.56 -14.62 4.26 -14.11 3.1 -13.16L2.55 -22.47L1.32 -22.4L-3.11 -21.07ZM3.79 -1.37L3.18 -11.64C4.17 -12.19 5.06 -12.48 5.86 -12.53C6.98 -12.6 7.93 -12.24 8.68 -11.46C9.44 -10.68 9.87 -9.47 9.97 -7.85C10.09 -5.81 9.72 -4.22 8.88 -3.09C8.03 -1.97 6.89 -1.36 5.45 -1.28C4.87 -1.24 4.32 -1.27 3.79 -1.37Z M14.73 -8.48C15.16 -6.7 15.88 -5.18 16.89 -3.92C17.89 -2.66 19.05 -1.74 20.36 -1.16C21.67 -0.57 23.05 -0.22 24.5 -0.1C25.94 0.01 27.39 -0.11 28.82 -0.46C31.21 -1.04 33.18 -2.1 34.76 -3.62L33.98 -4.42C32.53 -3.35 30.92 -2.6 29.16 -2.16C27.86 -1.84 26.6 -1.74 25.37 -1.85C24.14 -1.96 22.97 -2.28 21.88 -2.8C20.79 -3.33 19.83 -4.12 19.01 -5.19C18.18 -6.26 17.59 -7.56 17.22 -9.07C16.49 -12.03 16.83 -14.72 18.26 -17.12C19.68 -19.53 21.73 -21.05 24.38 -21.71C26.78 -22.3 28.94 -22.13 30.84 -21.21C32.75 -20.29 33.94 -18.85 34.42 -16.88C34.88 -15.03 34.71 -13.26 33.93 -11.58C33.15 -9.9 31.94 -8.88 30.32 -8.5L30.43 -18.39C28.97 -18.78 27.5 -18.8 26.02 -18.44C23.97 -17.93 22.41 -16.66 21.35 -14.62C20.29 -12.59 20.04 -10.39 20.63 -8.02C20.9 -6.89 21.37 -6.12 22.03 -5.71C22.7 -5.29 23.4 -5.17 24.15 -5.36C25.69 -5.74 26.92 -6.84 27.82 -8.66L27.95 -7.54C28.11 -6.88 28.65 -6.6 29.58 -6.69C30.49 -6.8 31.42 -7.17 32.34 -7.81C33.27 -8.44 34.07 -9.22 34.74 -10.16C35.42 -11.1 35.9 -12.19 36.2 -13.43C36.49 -14.67 36.49 -15.89 36.19 -17.09C35.58 -19.58 34.14 -21.4 31.87 -22.54C29.61 -23.68 26.97 -23.88 23.97 -23.14C20.5 -22.29 17.88 -20.47 16.13 -17.68C14.37 -14.9 13.9 -11.83 14.73 -8.48ZM23.17 -9.2C22.75 -10.91 22.88 -12.62 23.56 -14.34C24.24 -16.06 25.29 -17.1 26.73 -17.45C27.13 -17.55 27.54 -17.58 27.95 -17.55L27.86 -11.22C27.54 -10.29 27.13 -9.46 26.6 -8.72C26.08 -7.99 25.55 -7.55 25 -7.42C24.58 -7.32 24.21 -7.42 23.89 -7.74C23.57 -8.06 23.33 -8.54 23.17 -9.2Z M35.06 -19.63L36.26 -20.18L35.71 -24.4L39.33 -26.28L45.96 -11.61L43.86 -9.98L44.39 -8.8L52.25 -12.35L51.72 -13.53L49.11 -13.03L42.48 -27.7L46.26 -29.16L49.09 -25.97L50.3 -26.51L47.85 -31.94L32.61 -25.06Z M54.53 -30.42C52.8 -29.31 51.73 -27.8 51.34 -25.9C50.95 -23.99 51.33 -22.13 52.49 -20.31C53.66 -18.48 55.2 -17.34 57.1 -16.89C59 -16.44 60.82 -16.77 62.56 -17.88C64.29 -18.99 65.35 -20.5 65.73 -22.41C66.11 -24.32 65.71 -26.19 64.54 -28.02C63.38 -29.84 61.86 -30.97 59.97 -31.42C58.08 -31.87 56.27 -31.53 54.53 -30.42ZM55.37 -29.12C56.34 -29.75 57.39 -29.78 58.49 -29.22C59.59 -28.66 60.62 -27.63 61.58 -26.13C62.53 -24.64 63.04 -23.27 63.1 -22.01C63.16 -20.75 62.7 -19.81 61.72 -19.18C60.75 -18.55 59.7 -18.53 58.59 -19.11C57.47 -19.68 56.44 -20.72 55.48 -22.22C54.52 -23.72 54.01 -25.09 53.97 -26.33C53.92 -27.56 54.39 -28.5 55.37 -29.12Z M70.05 -23.48L76.72 -29.04L75.95 -29.97L73.32 -28.51L67.55 -35.44C67.71 -36.06 67.92 -36.66 68.19 -37.22L71.13 -39.26C70.91 -39.79 70.58 -40.32 70.13 -40.85C69.86 -41.18 69.56 -41.45 69.25 -41.65C67.71 -40.37 66.82 -38.68 66.57 -36.61L65.46 -37.94L64.51 -37.15L61.74 -33.45L62.51 -32.52L64.35 -34.05L70.75 -26.37L69.28 -24.41Z M74.04 -46.69C72.64 -45.18 71.98 -43.46 72.08 -41.51C72.17 -39.57 73.01 -37.86 74.59 -36.39C76.18 -34.91 77.95 -34.19 79.9 -34.22C81.86 -34.26 83.54 -35.03 84.94 -36.54C86.34 -38.05 86.99 -39.77 86.88 -41.72C86.78 -43.66 85.93 -45.38 84.34 -46.86C82.76 -48.33 81 -49.04 79.06 -49.01C77.12 -48.97 75.45 -48.2 74.04 -46.69ZM75.17 -45.64C75.97 -46.49 76.97 -46.78 78.18 -46.51C79.38 -46.24 80.64 -45.5 81.94 -44.29C83.23 -43.09 84.06 -41.88 84.44 -40.68C84.81 -39.47 84.6 -38.44 83.81 -37.59C83.02 -36.74 82.01 -36.46 80.79 -36.74C79.56 -37.02 78.3 -37.77 77 -38.98C75.7 -40.2 74.87 -41.4 74.52 -42.58C74.16 -43.77 74.38 -44.79 75.17 -45.64Z M90.95 -43.73L95.22 -50L94.22 -50.68L92.73 -49.49L84.99 -54.75C84.95 -56.22 85.24 -57.42 85.86 -58.33C86.78 -59.68 88.03 -59.82 89.61 -58.74L96.05 -54.37L95.48 -52.54L96.48 -51.86L100.73 -58.11L99.73 -58.79L97.93 -57.13L91.07 -61.79C90 -62.52 88.89 -62.77 87.73 -62.53C86.58 -62.3 85.59 -61.58 84.77 -60.37C83.87 -59.05 83.51 -57.47 83.69 -55.63L82.57 -56.39L81.86 -55.34L80.22 -51.02L81.22 -50.35L82.56 -52.32L90.83 -46.7L89.95 -44.41Z M90.13 -65.03L90.81 -66.35L98.35 -62.52C99.77 -61.79 100.93 -61.62 101.84 -61.98C102.76 -62.35 103.52 -63.13 104.13 -64.34C104.69 -65.44 104.97 -66.64 104.96 -67.95L103.59 -68.11C103.53 -67.26 103.38 -66.58 103.12 -66.08C102.52 -64.89 101.48 -64.68 99.99 -65.43L92.33 -69.33L94.16 -72.94L92.66 -73.71L90.97 -70.02L88.55 -71.26L88.16 -70.51L89.38 -65.41Z M94.94 -80.65C94.22 -78.72 94.28 -76.87 95.11 -75.11C95.95 -73.35 97.37 -72.1 99.39 -71.35C101.43 -70.59 103.34 -70.6 105.13 -71.38C106.92 -72.17 108.18 -73.52 108.9 -75.45C109.62 -77.39 109.55 -79.23 108.71 -80.98C107.86 -82.74 106.42 -83.99 104.38 -84.75C102.36 -85.5 100.46 -85.49 98.69 -84.71C96.91 -83.94 95.66 -82.58 94.94 -80.65ZM96.39 -80.11C96.79 -81.2 97.61 -81.85 98.82 -82.07C100.04 -82.28 101.49 -82.08 103.16 -81.46C104.81 -80.85 106.04 -80.05 106.84 -79.08C107.65 -78.11 107.85 -77.08 107.45 -75.99C107.04 -74.91 106.22 -74.26 104.98 -74.05C103.75 -73.84 102.3 -74.04 100.63 -74.67C98.96 -75.29 97.73 -76.08 96.95 -77.04C96.17 -78 95.98 -79.02 96.39 -80.11Z M111.89 -83.6L113.07 -90.58L111.79 -90.79L110.79 -88.43L97.75 -91.33L114.02 -95.43L114.23 -96.65L100.21 -105.77L113.47 -104.3L113.64 -101.77L114.91 -101.55L116.33 -109.98L115.06 -110.19L114 -107.63L98.18 -109.33L98.02 -111.92L96.75 -112.13L95.79 -106.43L109.19 -97.7L93.68 -93.9L92.68 -87.97L93.95 -87.73L94.94 -90.07L110.42 -86.55L110.61 -83.81Z M108.56 -111.3C110.68 -111.33 112.47 -112.02 113.92 -113.35C115.38 -114.68 116.09 -116.47 116.04 -118.74C116.02 -120.31 115.6 -121.96 114.8 -123.69L113.49 -123.19C113.94 -122.04 114.18 -120.96 114.2 -119.97C114.22 -118.42 113.71 -117.18 112.65 -116.26C111.59 -115.34 110.29 -114.8 108.76 -114.64L108.58 -124.14C107.55 -124.12 106.6 -123.99 105.72 -123.75C104.85 -123.51 104.06 -123.14 103.35 -122.65C102.65 -122.16 102.11 -121.51 101.72 -120.68C101.33 -119.86 101.15 -118.91 101.17 -117.82C101.2 -115.74 101.93 -114.13 103.35 -112.97C104.77 -111.82 106.5 -111.26 108.56 -111.3ZM107.38 -114.62C106.07 -114.63 104.97 -114.93 104.07 -115.5C103.18 -116.07 102.73 -116.83 102.71 -117.77C102.7 -118.63 103.1 -119.3 103.91 -119.78C104.73 -120.27 105.7 -120.55 106.82 -120.62Z M102.99 -124.7L102.8 -126.17L111.19 -127.26C112.76 -127.47 113.83 -127.98 114.37 -128.79C114.92 -129.61 115.1 -130.69 114.93 -132.03C114.77 -133.25 114.32 -134.4 113.58 -135.48L112.36 -134.84C112.79 -134.1 113.05 -133.45 113.12 -132.9C113.29 -131.58 112.55 -130.81 110.89 -130.6L102.37 -129.49L101.85 -133.5L100.17 -133.29L100.86 -129.29L98.16 -128.94L98.27 -128.11L102.15 -124.59Z"></path></g></g></g></svg>